<svg width="200" height="200" viewBox="0 0 200 200" fill="none" xmlns="http://www.w3.org/2000/svg">
  <path d="M40 140V60H65L85 90L105 60H130V140H110V95L90 125H80L60 95V140H40Z" fill="#0d50d5"/>
  <path d="M110 60H140C156.569 60 170 73.4315 170 90C170 100.5 164.5 109.5 156 114.5C164.5 119.5 170 128.5 170 140C170 156.569 156.569 170 140 170H110V140H140C145.523 140 150 135.523 150 130C150 124.477 145.523 120 140 120H125V110H140C145.523 110 150 105.523 150 100C150 94.4772 145.523 90 140 90H110V60Z" fill="#0d50d5" style="mix-blend-mode: multiply;"/>
  <rect x="110" y="60" width="20" height="80" fill="#0d50d5"/>
</svg>